<svg width="500" height="500" viewBox="0 0 500 500" fill="none" xmlns="http://www.w3.org/2000/svg">
<circle cx="250" cy="250" r="250" fill="#202020"/>
<path d="M321.25 160.938L273.75 208.438H309.375V291.562C309.375 304.625 298.688 315.312 285.625 315.312C272.562 315.312 261.875 304.625 261.875 291.562V208.438C261.875 182.194 240.619 160.938 214.375 160.938C188.131 160.938 166.875 182.194 166.875 208.438V291.562H131.25L178.75 339.062L226.25 291.562H190.625V208.438C190.625 195.375 201.312 184.688 214.375 184.688C227.438 184.688 238.125 195.375 238.125 208.438V291.562C238.125 317.806 259.381 339.062 285.625 339.062C311.869 339.062 333.125 317.806 333.125 291.562V208.438H368.75L321.25 160.938Z" fill="#4B96DD" fill-opacity="0.6"/>
</svg>
