<svg width="160" height="161" viewBox="0 0 160 161" fill="none" xmlns="http://www.w3.org/2000/svg">
<path d="M33.535 112.182C29.5185 112.182 26.2623 115.438 26.2623 119.455C26.2623 123.471 29.5185 126.727 33.535 126.727H80.001C84.0175 126.727 87.2737 123.471 87.2737 119.455V87.9394H111.515V119.455C111.515 123.471 114.771 126.727 118.788 126.727C122.804 126.727 126.061 123.471 126.061 119.455V35.3561C126.061 31.3396 122.804 28.0834 118.788 28.0834C114.771 28.0834 111.515 31.3396 111.515 35.3561V73.3939H14.5455V15.2121H50.9489C54.9653 15.2121 58.2216 11.9558 58.2216 7.93935C58.2216 3.92287 54.9653 0.666626 50.9489 0.666626H7.27273C3.25624 0.666626 0 3.92287 0 7.93935V153.394C0 157.41 3.25624 160.667 7.27273 160.667H80C84.0165 160.667 87.2727 157.41 87.2727 153.394C87.2727 149.377 84.0165 146.121 80 146.121H14.5455V87.9394H72.7282V112.182H33.535Z" fill="#2C3346"/>
<path d="M152.727 0.666626H80.0009C75.9844 0.666626 72.7281 3.92287 72.7281 7.93935V39.4545H36.3635C32.3471 39.4545 29.0908 42.7107 29.0908 46.7272C29.0908 50.7437 32.3471 54 36.3635 54H80.0009C84.0173 54 87.2736 50.7437 87.2736 46.7272V15.2121H145.454V146.121H109.091C105.074 146.121 101.818 149.377 101.818 153.394C101.818 157.41 105.074 160.667 109.091 160.667H152.727C156.744 160.667 160 157.41 160 153.394V7.93935C160 3.92287 156.744 0.666626 152.727 0.666626Z" fill="#2C3346"/>
</svg>
