<svg width="200" height="150" viewBox="0 0 200 150" fill="none" xmlns="http://www.w3.org/2000/svg">
<path fill-rule="evenodd" clip-rule="evenodd" d="M183.333 0H58.3333C52.5833 0 48.0833 2.91667 45.0833 7.33333L0 75L45.0833 142.583C48.0833 147 52.5833 150 58.3333 150H183.333C192.5 150 200 142.5 200 133.333V16.6667C200 7.5 192.5 0 183.333 0ZM183.331 133.333H58.9145L19.9978 75L58.8312 16.6667H183.331V133.333ZM116.667 86.75L86.75 116.667L75 104.917L104.917 75L75 45.0833L86.75 33.3333L116.667 63.25L146.583 33.3333L158.333 45.0833L128.417 75L158.333 104.917L146.583 116.667L116.667 86.75Z" fill="#E0E0E0"/>
</svg>
