<svg width="201" height="200" viewBox="0 0 201 200" fill="none" xmlns="http://www.w3.org/2000/svg">
<path d="M41.9188 139.394C36.8982 139.394 32.8279 143.464 32.8279 148.485C32.8279 153.505 36.8982 157.576 41.9188 157.576H100.001C105.022 157.576 109.092 153.505 109.092 148.485V109.091H139.394V148.485C139.394 153.505 143.464 157.576 148.485 157.576C153.505 157.576 157.576 153.505 157.576 148.485V43.3618C157.576 38.3412 153.505 34.2709 148.485 34.2709C143.464 34.2709 139.394 38.3412 139.394 43.3618V90.9091H18.1818V18.1818H63.6861C68.7067 18.1818 72.777 14.1115 72.777 9.09091C72.777 4.0703 68.7067 0 63.6861 0H9.09091C4.0703 0 0 4.0703 0 9.09091V190.909C0 195.93 4.0703 200 9.09091 200H100C105.021 200 109.091 195.93 109.091 190.909C109.091 185.888 105.021 181.818 100 181.818H18.1818V109.091H90.9103V139.394H41.9188Z" fill="#E0E0E0"/>
<path d="M190.911 0H100.003C94.9827 0 90.9124 4.0703 90.9124 9.09091V48.4848H45.4566C40.436 48.4848 36.3657 52.5552 36.3657 57.5758C36.3657 62.5964 40.436 66.6667 45.4566 66.6667H100.003C105.024 66.6667 109.094 62.5964 109.094 57.5758V18.1818H181.82V181.818H136.366C131.345 181.818 127.275 185.888 127.275 190.909C127.275 195.93 131.345 200 136.366 200H190.911C195.932 200 200.002 195.93 200.002 190.909V9.09091C200.002 4.0703 195.932 0 190.911 0Z" fill="#E0E0E0"/>
</svg>
