<svg width="168" height="168" viewBox="0 0 168 168" fill="none" xmlns="http://www.w3.org/2000/svg">
<path d="M75.6666 42.3333H92.3333V59H75.6666V42.3333Z" fill="#2C3346"/>
<path d="M75.6666 75.6666H92.3333V125.667H75.6666V75.6666Z" fill="#2C3346"/>
<path fill-rule="evenodd" clip-rule="evenodd" d="M0.666626 84C0.666626 38 37.9998 0.666626 84 0.666626C130 0.666626 167.333 38 167.333 84C167.333 130 130 167.333 84 167.333C37.9998 167.333 0.666626 130 0.666626 84ZM17.3333 84C17.3333 120.75 47.2497 150.667 84 150.667C120.75 150.667 150.667 120.75 150.667 84C150.667 47.2499 120.75 17.3333 84 17.3333C47.2497 17.3333 17.3333 47.2499 17.3333 84Z" fill="#2C3346"/>
</svg>
